<mxfile host="app.diagrams.net" modified="2022-12-30T22:44:21.397Z" agent="5.0 (Windows NT 10.0; Win64; x64) AppleWebKit/537.36 (KHTML, like Gecko) Chrome/108.0.0.0 Safari/537.36" etag="0yqtKZYUbeClWBcUWBKS" version="20.5.3" type="github">
  <diagram id="uWTazUt5wrkg9_69gz7J" name="Page-1">
    <mxGraphModel dx="2858" dy="1089" grid="1" gridSize="10" guides="1" tooltips="1" connect="1" arrows="1" fold="1" page="1" pageScale="1" pageWidth="827" pageHeight="1169" math="0" shadow="0">
      <root>
        <mxCell id="0" />
        <mxCell id="1" parent="0" />
        <mxCell id="40D-PU3RdZ5TPV4im3pD-1" value="&lt;font style=&quot;font-size: 15px;&quot;&gt;name&lt;/font&gt;" style="rounded=0;whiteSpace=wrap;html=1;" parent="1" vertex="1">
          <mxGeometry x="390" y="210" width="120" height="40" as="geometry" />
        </mxCell>
        <mxCell id="40D-PU3RdZ5TPV4im3pD-2" value="&lt;font style=&quot;font-size: 22px;&quot;&gt;User&lt;/font&gt;" style="ellipse;whiteSpace=wrap;html=1;" parent="1" vertex="1">
          <mxGeometry x="515" y="290" width="110" height="50" as="geometry" />
        </mxCell>
        <mxCell id="40D-PU3RdZ5TPV4im3pD-5" value="&lt;span style=&quot;font-size: 15px;&quot;&gt;u_id&lt;/span&gt;" style="rounded=0;whiteSpace=wrap;html=1;" parent="1" vertex="1">
          <mxGeometry x="660" y="210" width="120" height="40" as="geometry" />
        </mxCell>
        <mxCell id="40D-PU3RdZ5TPV4im3pD-7" value="" style="endArrow=none;html=1;rounded=0;fontSize=15;exitX=0;exitY=0;exitDx=0;exitDy=0;entryX=0.5;entryY=1;entryDx=0;entryDy=0;" parent="1" source="40D-PU3RdZ5TPV4im3pD-2" target="40D-PU3RdZ5TPV4im3pD-1" edge="1">
          <mxGeometry width="50" height="50" relative="1" as="geometry">
            <mxPoint x="545" y="300" as="sourcePoint" />
            <mxPoint x="595" y="250" as="targetPoint" />
          </mxGeometry>
        </mxCell>
        <mxCell id="40D-PU3RdZ5TPV4im3pD-8" value="" style="endArrow=none;html=1;rounded=0;fontSize=15;entryX=0.5;entryY=1;entryDx=0;entryDy=0;exitX=0.848;exitY=0.142;exitDx=0;exitDy=0;exitPerimeter=0;" parent="1" source="40D-PU3RdZ5TPV4im3pD-2" target="40D-PU3RdZ5TPV4im3pD-5" edge="1">
          <mxGeometry width="50" height="50" relative="1" as="geometry">
            <mxPoint x="620" y="310" as="sourcePoint" />
            <mxPoint x="620" y="270" as="targetPoint" />
          </mxGeometry>
        </mxCell>
        <mxCell id="40D-PU3RdZ5TPV4im3pD-10" value="&lt;font style=&quot;font-size: 15px;&quot;&gt;Address&lt;/font&gt;" style="rounded=0;whiteSpace=wrap;html=1;" parent="1" vertex="1">
          <mxGeometry x="640" y="360" width="120" height="40" as="geometry" />
        </mxCell>
        <mxCell id="40D-PU3RdZ5TPV4im3pD-11" value="" style="endArrow=none;html=1;rounded=0;fontSize=15;exitX=0.924;exitY=0.761;exitDx=0;exitDy=0;entryX=0.5;entryY=0;entryDx=0;entryDy=0;exitPerimeter=0;" parent="1" source="40D-PU3RdZ5TPV4im3pD-2" target="40D-PU3RdZ5TPV4im3pD-10" edge="1">
          <mxGeometry width="50" height="50" relative="1" as="geometry">
            <mxPoint x="625" y="310" as="sourcePoint" />
            <mxPoint x="625" y="270" as="targetPoint" />
          </mxGeometry>
        </mxCell>
        <mxCell id="40D-PU3RdZ5TPV4im3pD-12" value="&lt;font style=&quot;font-size: 13px;&quot;&gt;registered phone number&lt;/font&gt;" style="rounded=0;whiteSpace=wrap;html=1;" parent="1" vertex="1">
          <mxGeometry x="440" y="420" width="170" height="40" as="geometry" />
        </mxCell>
        <mxCell id="40D-PU3RdZ5TPV4im3pD-13" value="" style="endArrow=none;html=1;rounded=0;fontSize=15;exitX=0.5;exitY=1;exitDx=0;exitDy=0;entryX=0.478;entryY=-0.002;entryDx=0;entryDy=0;entryPerimeter=0;" parent="1" source="40D-PU3RdZ5TPV4im3pD-2" target="40D-PU3RdZ5TPV4im3pD-12" edge="1">
          <mxGeometry width="50" height="50" relative="1" as="geometry">
            <mxPoint x="635" y="325" as="sourcePoint" />
            <mxPoint x="610" y="360" as="targetPoint" />
          </mxGeometry>
        </mxCell>
        <mxCell id="40D-PU3RdZ5TPV4im3pD-17" value="&lt;span style=&quot;font-size: 15px;&quot;&gt;timestamp&lt;/span&gt;" style="rounded=0;whiteSpace=wrap;html=1;" parent="1" vertex="1">
          <mxGeometry x="-680" y="210" width="120" height="40" as="geometry" />
        </mxCell>
        <mxCell id="40D-PU3RdZ5TPV4im3pD-18" value="&lt;font style=&quot;font-size: 22px;&quot;&gt;Orders&lt;/font&gt;" style="ellipse;whiteSpace=wrap;html=1;" parent="1" vertex="1">
          <mxGeometry x="-555" y="290" width="110" height="50" as="geometry" />
        </mxCell>
        <mxCell id="40D-PU3RdZ5TPV4im3pD-19" value="&lt;span style=&quot;font-size: 15px;&quot;&gt;&lt;u&gt;order_id&lt;/u&gt;&lt;/span&gt;" style="rounded=0;whiteSpace=wrap;html=1;" parent="1" vertex="1">
          <mxGeometry x="-410" y="210" width="120" height="40" as="geometry" />
        </mxCell>
        <mxCell id="40D-PU3RdZ5TPV4im3pD-20" value="" style="endArrow=none;html=1;rounded=0;fontSize=15;exitX=0;exitY=0;exitDx=0;exitDy=0;entryX=0.5;entryY=1;entryDx=0;entryDy=0;" parent="1" source="40D-PU3RdZ5TPV4im3pD-18" target="40D-PU3RdZ5TPV4im3pD-17" edge="1">
          <mxGeometry width="50" height="50" relative="1" as="geometry">
            <mxPoint x="-525" y="300" as="sourcePoint" />
            <mxPoint x="-475" y="250" as="targetPoint" />
          </mxGeometry>
        </mxCell>
        <mxCell id="40D-PU3RdZ5TPV4im3pD-21" value="" style="endArrow=none;html=1;rounded=0;fontSize=15;entryX=0.5;entryY=1;entryDx=0;entryDy=0;exitX=0.848;exitY=0.142;exitDx=0;exitDy=0;exitPerimeter=0;" parent="1" source="40D-PU3RdZ5TPV4im3pD-18" target="40D-PU3RdZ5TPV4im3pD-19" edge="1">
          <mxGeometry width="50" height="50" relative="1" as="geometry">
            <mxPoint x="-450" y="310" as="sourcePoint" />
            <mxPoint x="-450" y="270" as="targetPoint" />
          </mxGeometry>
        </mxCell>
        <mxCell id="40D-PU3RdZ5TPV4im3pD-22" value="&lt;span style=&quot;font-size: 15px;&quot;&gt;u_id&lt;/span&gt;" style="rounded=0;whiteSpace=wrap;html=1;" parent="1" vertex="1">
          <mxGeometry x="-430" y="360" width="120" height="40" as="geometry" />
        </mxCell>
        <mxCell id="40D-PU3RdZ5TPV4im3pD-23" value="" style="endArrow=none;html=1;rounded=0;fontSize=15;exitX=0.924;exitY=0.761;exitDx=0;exitDy=0;entryX=0.5;entryY=0;entryDx=0;entryDy=0;exitPerimeter=0;" parent="1" source="40D-PU3RdZ5TPV4im3pD-18" target="40D-PU3RdZ5TPV4im3pD-22" edge="1">
          <mxGeometry width="50" height="50" relative="1" as="geometry">
            <mxPoint x="-445" y="310" as="sourcePoint" />
            <mxPoint x="-445" y="270" as="targetPoint" />
          </mxGeometry>
        </mxCell>
        <mxCell id="40D-PU3RdZ5TPV4im3pD-24" value="&lt;span style=&quot;font-size: 13px;&quot;&gt;product_Id&lt;/span&gt;" style="rounded=0;whiteSpace=wrap;html=1;" parent="1" vertex="1">
          <mxGeometry x="-720" y="370" width="170" height="40" as="geometry" />
        </mxCell>
        <mxCell id="40D-PU3RdZ5TPV4im3pD-25" value="" style="endArrow=none;html=1;rounded=0;fontSize=15;exitX=0.07;exitY=0.757;exitDx=0;exitDy=0;exitPerimeter=0;entryX=0.478;entryY=-0.002;entryDx=0;entryDy=0;entryPerimeter=0;" parent="1" source="40D-PU3RdZ5TPV4im3pD-18" target="40D-PU3RdZ5TPV4im3pD-24" edge="1">
          <mxGeometry width="50" height="50" relative="1" as="geometry">
            <mxPoint x="-435" y="325" as="sourcePoint" />
            <mxPoint x="-460" y="360" as="targetPoint" />
          </mxGeometry>
        </mxCell>
        <mxCell id="40D-PU3RdZ5TPV4im3pD-28" value="&lt;span style=&quot;font-size: 18px;&quot;&gt;Place&lt;/span&gt;" style="rhombus;whiteSpace=wrap;html=1;fontSize=13;" parent="1" vertex="1">
          <mxGeometry x="-70" y="245" width="140" height="135" as="geometry" />
        </mxCell>
        <mxCell id="40D-PU3RdZ5TPV4im3pD-29" value="" style="endArrow=none;html=1;rounded=0;fontSize=13;exitX=1;exitY=0.5;exitDx=0;exitDy=0;" parent="1" source="40D-PU3RdZ5TPV4im3pD-18" target="40D-PU3RdZ5TPV4im3pD-28" edge="1">
          <mxGeometry width="50" height="50" relative="1" as="geometry">
            <mxPoint x="40" y="440" as="sourcePoint" />
            <mxPoint x="90" y="390" as="targetPoint" />
          </mxGeometry>
        </mxCell>
        <mxCell id="40D-PU3RdZ5TPV4im3pD-30" value="" style="endArrow=none;html=1;rounded=0;fontSize=13;exitX=1;exitY=0.5;exitDx=0;exitDy=0;entryX=0;entryY=0.5;entryDx=0;entryDy=0;" parent="1" source="40D-PU3RdZ5TPV4im3pD-28" target="40D-PU3RdZ5TPV4im3pD-2" edge="1">
          <mxGeometry width="50" height="50" relative="1" as="geometry">
            <mxPoint x="70" y="313.55" as="sourcePoint" />
            <mxPoint x="510" y="290" as="targetPoint" />
          </mxGeometry>
        </mxCell>
        <mxCell id="40D-PU3RdZ5TPV4im3pD-31" value="&lt;span style=&quot;font-size: 15px;&quot;&gt;selling price&lt;/span&gt;" style="rounded=0;whiteSpace=wrap;html=1;" parent="1" vertex="1">
          <mxGeometry x="-730" y="780" width="120" height="40" as="geometry" />
        </mxCell>
        <mxCell id="40D-PU3RdZ5TPV4im3pD-32" value="&lt;font style=&quot;font-size: 22px;&quot;&gt;Product&lt;/font&gt;" style="ellipse;whiteSpace=wrap;html=1;" parent="1" vertex="1">
          <mxGeometry x="-575" y="890" width="135" height="70" as="geometry" />
        </mxCell>
        <mxCell id="40D-PU3RdZ5TPV4im3pD-33" value="&lt;span style=&quot;font-size: 15px;&quot;&gt;&lt;u&gt;product_id&lt;/u&gt;&lt;/span&gt;" style="rounded=0;whiteSpace=wrap;html=1;" parent="1" vertex="1">
          <mxGeometry x="-510" y="740" width="120" height="40" as="geometry" />
        </mxCell>
        <mxCell id="40D-PU3RdZ5TPV4im3pD-34" value="" style="endArrow=none;html=1;rounded=0;fontSize=15;exitX=0;exitY=0;exitDx=0;exitDy=0;entryX=0.5;entryY=1;entryDx=0;entryDy=0;" parent="1" source="40D-PU3RdZ5TPV4im3pD-32" target="40D-PU3RdZ5TPV4im3pD-31" edge="1">
          <mxGeometry width="50" height="50" relative="1" as="geometry">
            <mxPoint x="-545" y="900" as="sourcePoint" />
            <mxPoint x="-495" y="850" as="targetPoint" />
          </mxGeometry>
        </mxCell>
        <mxCell id="40D-PU3RdZ5TPV4im3pD-35" value="" style="endArrow=none;html=1;rounded=0;fontSize=15;entryX=0.5;entryY=1;entryDx=0;entryDy=0;exitX=0.848;exitY=0.142;exitDx=0;exitDy=0;exitPerimeter=0;" parent="1" source="40D-PU3RdZ5TPV4im3pD-32" target="40D-PU3RdZ5TPV4im3pD-33" edge="1">
          <mxGeometry width="50" height="50" relative="1" as="geometry">
            <mxPoint x="-470" y="910" as="sourcePoint" />
            <mxPoint x="-470" y="870" as="targetPoint" />
          </mxGeometry>
        </mxCell>
        <mxCell id="40D-PU3RdZ5TPV4im3pD-36" value="&lt;span style=&quot;font-size: 15px;&quot;&gt;weight&lt;/span&gt;" style="rounded=0;whiteSpace=wrap;html=1;" parent="1" vertex="1">
          <mxGeometry x="-380" y="1010" width="120" height="40" as="geometry" />
        </mxCell>
        <mxCell id="40D-PU3RdZ5TPV4im3pD-37" value="" style="endArrow=none;html=1;rounded=0;fontSize=15;exitX=0.924;exitY=0.761;exitDx=0;exitDy=0;entryX=0.5;entryY=0;entryDx=0;entryDy=0;exitPerimeter=0;" parent="1" source="40D-PU3RdZ5TPV4im3pD-32" target="40D-PU3RdZ5TPV4im3pD-36" edge="1">
          <mxGeometry width="50" height="50" relative="1" as="geometry">
            <mxPoint x="-465" y="910" as="sourcePoint" />
            <mxPoint x="-465" y="870" as="targetPoint" />
          </mxGeometry>
        </mxCell>
        <mxCell id="40D-PU3RdZ5TPV4im3pD-38" value="&lt;span style=&quot;font-size: 13px;&quot;&gt;MRP&lt;/span&gt;" style="rounded=0;whiteSpace=wrap;html=1;" parent="1" vertex="1">
          <mxGeometry x="-740" y="990" width="170" height="40" as="geometry" />
        </mxCell>
        <mxCell id="40D-PU3RdZ5TPV4im3pD-39" value="" style="endArrow=none;html=1;rounded=0;fontSize=15;exitX=0.07;exitY=0.757;exitDx=0;exitDy=0;exitPerimeter=0;entryX=0.478;entryY=-0.002;entryDx=0;entryDy=0;entryPerimeter=0;" parent="1" source="40D-PU3RdZ5TPV4im3pD-32" target="40D-PU3RdZ5TPV4im3pD-38" edge="1">
          <mxGeometry width="50" height="50" relative="1" as="geometry">
            <mxPoint x="-455" y="925" as="sourcePoint" />
            <mxPoint x="-480" y="960" as="targetPoint" />
          </mxGeometry>
        </mxCell>
        <mxCell id="40D-PU3RdZ5TPV4im3pD-40" value="&lt;span style=&quot;font-size: 15px;&quot;&gt;description&lt;/span&gt;" style="rounded=0;whiteSpace=wrap;html=1;" parent="1" vertex="1">
          <mxGeometry x="-360" y="750" width="120" height="40" as="geometry" />
        </mxCell>
        <mxCell id="40D-PU3RdZ5TPV4im3pD-41" value="" style="endArrow=none;html=1;rounded=0;fontSize=15;exitX=0.967;exitY=0.3;exitDx=0;exitDy=0;entryX=0;entryY=0.5;entryDx=0;entryDy=0;exitPerimeter=0;" parent="1" source="40D-PU3RdZ5TPV4im3pD-32" target="40D-PU3RdZ5TPV4im3pD-40" edge="1">
          <mxGeometry width="50" height="50" relative="1" as="geometry">
            <mxPoint x="-440" y="920.0000000000002" as="sourcePoint" />
            <mxPoint x="-342.74" y="966.73" as="targetPoint" />
          </mxGeometry>
        </mxCell>
        <mxCell id="40D-PU3RdZ5TPV4im3pD-42" value="&lt;span style=&quot;font-size: 15px;&quot;&gt;category&lt;/span&gt;" style="rounded=0;whiteSpace=wrap;html=1;" parent="1" vertex="1">
          <mxGeometry x="-770" y="905" width="110" height="40" as="geometry" />
        </mxCell>
        <mxCell id="40D-PU3RdZ5TPV4im3pD-43" value="" style="endArrow=none;html=1;rounded=0;fontSize=15;exitX=1;exitY=0.5;exitDx=0;exitDy=0;entryX=0;entryY=0.5;entryDx=0;entryDy=0;" parent="1" source="40D-PU3RdZ5TPV4im3pD-42" target="40D-PU3RdZ5TPV4im3pD-32" edge="1">
          <mxGeometry width="50" height="50" relative="1" as="geometry">
            <mxPoint x="-630.005" y="919.51" as="sourcePoint" />
            <mxPoint x="-570.14" y="920.49" as="targetPoint" />
          </mxGeometry>
        </mxCell>
        <mxCell id="40D-PU3RdZ5TPV4im3pD-44" value="&lt;span style=&quot;font-size: 15px;&quot;&gt;Dimension&amp;nbsp;&lt;/span&gt;" style="rounded=0;whiteSpace=wrap;html=1;" parent="1" vertex="1">
          <mxGeometry x="-555" y="1010" width="120" height="40" as="geometry" />
        </mxCell>
        <mxCell id="40D-PU3RdZ5TPV4im3pD-45" value="" style="endArrow=none;html=1;rounded=0;fontSize=18;exitX=0.494;exitY=0.008;exitDx=0;exitDy=0;exitPerimeter=0;entryX=0.5;entryY=1;entryDx=0;entryDy=0;" parent="1" source="40D-PU3RdZ5TPV4im3pD-44" target="40D-PU3RdZ5TPV4im3pD-32" edge="1">
          <mxGeometry width="50" height="50" relative="1" as="geometry">
            <mxPoint x="-530" y="940" as="sourcePoint" />
            <mxPoint x="-480" y="890" as="targetPoint" />
          </mxGeometry>
        </mxCell>
        <mxCell id="40D-PU3RdZ5TPV4im3pD-46" value="&lt;span style=&quot;font-size: 15px;&quot;&gt;tags&lt;/span&gt;" style="rounded=0;whiteSpace=wrap;html=1;" parent="1" vertex="1">
          <mxGeometry x="-640" y="690" width="120" height="40" as="geometry" />
        </mxCell>
        <mxCell id="40D-PU3RdZ5TPV4im3pD-47" value="" style="endArrow=none;html=1;rounded=0;fontSize=18;exitX=0.52;exitY=-0.001;exitDx=0;exitDy=0;exitPerimeter=0;entryX=0.5;entryY=1;entryDx=0;entryDy=0;" parent="1" source="40D-PU3RdZ5TPV4im3pD-32" target="40D-PU3RdZ5TPV4im3pD-46" edge="1">
          <mxGeometry width="50" height="50" relative="1" as="geometry">
            <mxPoint x="-489.11" y="900.3199999999999" as="sourcePoint" />
            <mxPoint x="-500.89" y="850" as="targetPoint" />
          </mxGeometry>
        </mxCell>
        <mxCell id="40D-PU3RdZ5TPV4im3pD-48" value="&lt;span style=&quot;font-size: 18px;&quot;&gt;Orders&lt;/span&gt;" style="rhombus;whiteSpace=wrap;html=1;fontSize=13;rotation=-30;" parent="1" vertex="1">
          <mxGeometry y="580" width="140" height="135" as="geometry" />
        </mxCell>
        <mxCell id="40D-PU3RdZ5TPV4im3pD-51" value="" style="endArrow=none;html=1;rounded=0;fontSize=18;exitX=1;exitY=0.5;exitDx=0;exitDy=0;entryX=0;entryY=0.5;entryDx=0;entryDy=0;" parent="1" source="40D-PU3RdZ5TPV4im3pD-32" target="40D-PU3RdZ5TPV4im3pD-48" edge="1">
          <mxGeometry width="50" height="50" relative="1" as="geometry">
            <mxPoint x="200" y="450" as="sourcePoint" />
            <mxPoint x="250" y="400" as="targetPoint" />
          </mxGeometry>
        </mxCell>
        <mxCell id="40D-PU3RdZ5TPV4im3pD-54" value="" style="endArrow=none;html=1;rounded=0;fontSize=18;exitX=1;exitY=0.5;exitDx=0;exitDy=0;entryX=0;entryY=1;entryDx=0;entryDy=0;" parent="1" source="40D-PU3RdZ5TPV4im3pD-48" target="40D-PU3RdZ5TPV4im3pD-2" edge="1">
          <mxGeometry width="50" height="50" relative="1" as="geometry">
            <mxPoint x="60" y="470" as="sourcePoint" />
            <mxPoint x="110" y="420" as="targetPoint" />
          </mxGeometry>
        </mxCell>
      </root>
    </mxGraphModel>
  </diagram>
</mxfile>
